<mxfile host="app.diagrams.net" agent="Mozilla/5.0 (Windows NT 10.0; Win64; x64) AppleWebKit/537.36 (KHTML, like Gecko) Chrome/140.0.0.0 Safari/537.36" version="28.2.2">
  <diagram name="Page-1" id="RBnTt9xilX7jBgHeVSNJ">
    <mxGraphModel dx="786" dy="1517" grid="1" gridSize="10" guides="1" tooltips="1" connect="1" arrows="1" fold="1" page="1" pageScale="1" pageWidth="850" pageHeight="1100" math="0" shadow="0">
      <root>
        <mxCell id="0" />
        <mxCell id="1" parent="0" />
        <mxCell id="XOEcomevKT1Ze6EOLrN4-1" value="&lt;b&gt;&lt;font style=&quot;font-size: 14px;&quot;&gt;Integration Model&lt;/font&gt;&lt;/b&gt;" style="rounded=0;whiteSpace=wrap;html=1;" parent="1" vertex="1">
          <mxGeometry x="10" y="10" width="160" height="60" as="geometry" />
        </mxCell>
        <mxCell id="XOEcomevKT1Ze6EOLrN4-4" value="" style="rounded=1;whiteSpace=wrap;html=1;" parent="1" vertex="1">
          <mxGeometry x="370" y="103" width="180" height="127" as="geometry" />
        </mxCell>
        <mxCell id="XOEcomevKT1Ze6EOLrN4-5" value="crm_cust_info" style="rounded=1;whiteSpace=wrap;html=1;fillColor=#f8cecc;strokeColor=#b85450;" parent="1" vertex="1">
          <mxGeometry x="390" y="113" width="140" height="30" as="geometry" />
        </mxCell>
        <mxCell id="XOEcomevKT1Ze6EOLrN4-6" value="Customer&lt;i&gt;&amp;nbsp;&lt;/i&gt;Information" style="rounded=0;whiteSpace=wrap;html=1;" parent="1" vertex="1">
          <mxGeometry x="390" y="73" width="140" height="30" as="geometry" />
        </mxCell>
        <mxCell id="XOEcomevKT1Ze6EOLrN4-8" value="cst_id" style="rounded=1;whiteSpace=wrap;html=1;" parent="1" vertex="1">
          <mxGeometry x="390" y="153" width="140" height="30" as="geometry" />
        </mxCell>
        <mxCell id="XOEcomevKT1Ze6EOLrN4-9" value="" style="rounded=1;whiteSpace=wrap;html=1;" parent="1" vertex="1">
          <mxGeometry x="370" y="293" width="180" height="100" as="geometry" />
        </mxCell>
        <mxCell id="XOEcomevKT1Ze6EOLrN4-10" value="crm_prd_info" style="rounded=1;whiteSpace=wrap;html=1;fillColor=#f8cecc;strokeColor=#b85450;" parent="1" vertex="1">
          <mxGeometry x="390" y="303" width="140" height="30" as="geometry" />
        </mxCell>
        <mxCell id="XOEcomevKT1Ze6EOLrN4-11" value="Historical &amp;amp; Current Product Information" style="rounded=0;whiteSpace=wrap;html=1;" parent="1" vertex="1">
          <mxGeometry x="390" y="263" width="140" height="30" as="geometry" />
        </mxCell>
        <mxCell id="XOEcomevKT1Ze6EOLrN4-12" value="prd_key" style="rounded=1;whiteSpace=wrap;html=1;" parent="1" vertex="1">
          <mxGeometry x="390" y="343" width="140" height="30" as="geometry" />
        </mxCell>
        <mxCell id="XOEcomevKT1Ze6EOLrN4-13" value="" style="rounded=1;whiteSpace=wrap;html=1;" parent="1" vertex="1">
          <mxGeometry x="60" y="190" width="180" height="130" as="geometry" />
        </mxCell>
        <mxCell id="XOEcomevKT1Ze6EOLrN4-14" value="crm_sales_details" style="rounded=1;whiteSpace=wrap;html=1;fillColor=#f8cecc;strokeColor=#b85450;" parent="1" vertex="1">
          <mxGeometry x="80" y="200" width="140" height="30" as="geometry" />
        </mxCell>
        <mxCell id="XOEcomevKT1Ze6EOLrN4-15" value="Transactional Details" style="rounded=0;whiteSpace=wrap;html=1;" parent="1" vertex="1">
          <mxGeometry x="80" y="160" width="140" height="30" as="geometry" />
        </mxCell>
        <mxCell id="XOEcomevKT1Ze6EOLrN4-16" value="sls_cust_id" style="rounded=1;whiteSpace=wrap;html=1;" parent="1" vertex="1">
          <mxGeometry x="80" y="240" width="140" height="30" as="geometry" />
        </mxCell>
        <mxCell id="XOEcomevKT1Ze6EOLrN4-17" value="sls_prd_key" style="rounded=1;whiteSpace=wrap;html=1;" parent="1" vertex="1">
          <mxGeometry x="80" y="280" width="140" height="30" as="geometry" />
        </mxCell>
        <mxCell id="XOEcomevKT1Ze6EOLrN4-18" value="" style="edgeStyle=elbowEdgeStyle;elbow=horizontal;endArrow=classic;html=1;curved=0;rounded=0;endSize=8;startSize=8;entryX=0;entryY=0.5;entryDx=0;entryDy=0;" parent="1" target="XOEcomevKT1Ze6EOLrN4-8" edge="1">
          <mxGeometry width="50" height="50" relative="1" as="geometry">
            <mxPoint x="220" y="253" as="sourcePoint" />
            <mxPoint x="270" y="203" as="targetPoint" />
            <Array as="points">
              <mxPoint x="300" y="250" />
            </Array>
          </mxGeometry>
        </mxCell>
        <mxCell id="XOEcomevKT1Ze6EOLrN4-19" value="" style="edgeStyle=elbowEdgeStyle;elbow=horizontal;endArrow=classic;html=1;curved=0;rounded=0;endSize=8;startSize=8;exitX=1;exitY=0.5;exitDx=0;exitDy=0;entryX=0;entryY=0.5;entryDx=0;entryDy=0;" parent="1" source="XOEcomevKT1Ze6EOLrN4-17" target="XOEcomevKT1Ze6EOLrN4-12" edge="1">
          <mxGeometry width="50" height="50" relative="1" as="geometry">
            <mxPoint x="380" y="250" as="sourcePoint" />
            <mxPoint x="430" y="200" as="targetPoint" />
            <Array as="points">
              <mxPoint x="320" y="300" />
            </Array>
          </mxGeometry>
        </mxCell>
        <mxCell id="XOEcomevKT1Ze6EOLrN4-20" value="" style="rounded=1;whiteSpace=wrap;html=1;" parent="1" vertex="1">
          <mxGeometry x="629" y="29" width="180" height="100" as="geometry" />
        </mxCell>
        <mxCell id="XOEcomevKT1Ze6EOLrN4-21" value="erp_cust_az12" style="rounded=1;whiteSpace=wrap;html=1;fillColor=#dae8fc;strokeColor=#6c8ebf;" parent="1" vertex="1">
          <mxGeometry x="649" y="38" width="140" height="30" as="geometry" />
        </mxCell>
        <mxCell id="XOEcomevKT1Ze6EOLrN4-22" value="cid" style="rounded=1;whiteSpace=wrap;html=1;" parent="1" vertex="1">
          <mxGeometry x="649" y="78" width="140" height="30" as="geometry" />
        </mxCell>
        <mxCell id="XOEcomevKT1Ze6EOLrN4-23" value="Customer&lt;i&gt;&amp;nbsp;&lt;/i&gt;Information (Birthday)" style="rounded=0;whiteSpace=wrap;html=1;" parent="1" vertex="1">
          <mxGeometry x="640" y="-1" width="140" height="30" as="geometry" />
        </mxCell>
        <mxCell id="XOEcomevKT1Ze6EOLrN4-24" value="cst_key" style="rounded=1;whiteSpace=wrap;html=1;" parent="1" vertex="1">
          <mxGeometry x="390" y="190" width="140" height="30" as="geometry" />
        </mxCell>
        <mxCell id="XOEcomevKT1Ze6EOLrN4-25" value="" style="edgeStyle=elbowEdgeStyle;elbow=horizontal;endArrow=classic;html=1;curved=0;rounded=0;endSize=8;startSize=8;entryX=0;entryY=0.5;entryDx=0;entryDy=0;exitX=1;exitY=0.5;exitDx=0;exitDy=0;" parent="1" source="XOEcomevKT1Ze6EOLrN4-24" target="XOEcomevKT1Ze6EOLrN4-22" edge="1">
          <mxGeometry width="50" height="50" relative="1" as="geometry">
            <mxPoint x="530" y="208.5" as="sourcePoint" />
            <mxPoint x="700" y="123.5" as="targetPoint" />
          </mxGeometry>
        </mxCell>
        <mxCell id="XOEcomevKT1Ze6EOLrN4-27" value="" style="rounded=1;whiteSpace=wrap;html=1;" parent="1" vertex="1">
          <mxGeometry x="629" y="171" width="180" height="100" as="geometry" />
        </mxCell>
        <mxCell id="XOEcomevKT1Ze6EOLrN4-28" value="erp_loc_a101" style="rounded=1;whiteSpace=wrap;html=1;fillColor=#dae8fc;strokeColor=#6c8ebf;" parent="1" vertex="1">
          <mxGeometry x="649" y="179" width="140" height="30" as="geometry" />
        </mxCell>
        <mxCell id="XOEcomevKT1Ze6EOLrN4-29" value="cid" style="rounded=1;whiteSpace=wrap;html=1;" parent="1" vertex="1">
          <mxGeometry x="649" y="219" width="140" height="30" as="geometry" />
        </mxCell>
        <mxCell id="XOEcomevKT1Ze6EOLrN4-30" value="Customer&lt;i&gt;&amp;nbsp;&lt;/i&gt;Information (Country)" style="rounded=0;whiteSpace=wrap;html=1;" parent="1" vertex="1">
          <mxGeometry x="640" y="140" width="140" height="30" as="geometry" />
        </mxCell>
        <mxCell id="XOEcomevKT1Ze6EOLrN4-31" value="" style="edgeStyle=elbowEdgeStyle;elbow=horizontal;endArrow=classic;html=1;curved=0;rounded=0;endSize=8;startSize=8;entryX=-0.023;entryY=0.648;entryDx=0;entryDy=0;entryPerimeter=0;" parent="1" target="XOEcomevKT1Ze6EOLrN4-27" edge="1">
          <mxGeometry width="50" height="50" relative="1" as="geometry">
            <mxPoint x="530" y="200" as="sourcePoint" />
            <mxPoint x="648" y="166" as="targetPoint" />
          </mxGeometry>
        </mxCell>
        <mxCell id="XOEcomevKT1Ze6EOLrN4-32" value="" style="rounded=1;whiteSpace=wrap;html=1;" parent="1" vertex="1">
          <mxGeometry x="640" y="334" width="180" height="100" as="geometry" />
        </mxCell>
        <mxCell id="XOEcomevKT1Ze6EOLrN4-33" value="&lt;font style=&quot;font-size: 9px;&quot;&gt;erp_cuserp_px_cat_g1v2t_az12&lt;/font&gt;" style="rounded=1;whiteSpace=wrap;html=1;fillColor=#dae8fc;strokeColor=#6c8ebf;" parent="1" vertex="1">
          <mxGeometry x="660" y="342" width="140" height="30" as="geometry" />
        </mxCell>
        <mxCell id="XOEcomevKT1Ze6EOLrN4-34" value="id" style="rounded=1;whiteSpace=wrap;html=1;" parent="1" vertex="1">
          <mxGeometry x="660" y="382" width="140" height="30" as="geometry" />
        </mxCell>
        <mxCell id="XOEcomevKT1Ze6EOLrN4-35" value="Product&lt;i&gt;&amp;nbsp;&lt;/i&gt;Categories" style="rounded=0;whiteSpace=wrap;html=1;" parent="1" vertex="1">
          <mxGeometry x="651" y="303" width="140" height="30" as="geometry" />
        </mxCell>
        <mxCell id="XOEcomevKT1Ze6EOLrN4-36" value="" style="edgeStyle=elbowEdgeStyle;elbow=horizontal;endArrow=classic;html=1;curved=0;rounded=0;endSize=8;startSize=8;entryX=0;entryY=0.5;entryDx=0;entryDy=0;exitX=0.98;exitY=0.67;exitDx=0;exitDy=0;exitPerimeter=0;" parent="1" source="XOEcomevKT1Ze6EOLrN4-9" target="XOEcomevKT1Ze6EOLrN4-32" edge="1">
          <mxGeometry width="50" height="50" relative="1" as="geometry">
            <mxPoint x="560" y="360" as="sourcePoint" />
            <mxPoint x="620" y="400" as="targetPoint" />
            <Array as="points">
              <mxPoint x="620" y="365" />
            </Array>
          </mxGeometry>
        </mxCell>
        <mxCell id="3uDAKEXOSBVSARUy6kpd-1" value="&lt;b&gt;&lt;font style=&quot;font-size: 13px;&quot;&gt;Product&lt;/font&gt;&lt;/b&gt;" style="text;html=1;strokeColor=#A50040;fillColor=#d80073;align=center;verticalAlign=middle;whiteSpace=wrap;overflow=hidden;fontColor=#ffffff;" vertex="1" parent="1">
          <mxGeometry x="420" y="374" width="70" height="20" as="geometry" />
        </mxCell>
        <mxCell id="3uDAKEXOSBVSARUy6kpd-2" value="&lt;b&gt;&lt;font style=&quot;font-size: 13px;&quot;&gt;Product&lt;/font&gt;&lt;/b&gt;" style="text;html=1;strokeColor=#A50040;fillColor=#d80073;align=center;verticalAlign=middle;whiteSpace=wrap;overflow=hidden;fontColor=#ffffff;" vertex="1" parent="1">
          <mxGeometry x="695" y="414" width="70" height="20" as="geometry" />
        </mxCell>
        <mxCell id="3uDAKEXOSBVSARUy6kpd-5" value="" style="edgeStyle=orthogonalEdgeStyle;rounded=0;orthogonalLoop=1;jettySize=auto;html=1;" edge="1" parent="1" source="3uDAKEXOSBVSARUy6kpd-3">
          <mxGeometry relative="1" as="geometry">
            <mxPoint x="345" y="229" as="targetPoint" />
          </mxGeometry>
        </mxCell>
        <mxCell id="3uDAKEXOSBVSARUy6kpd-3" value="&lt;b&gt;&lt;font style=&quot;font-size: 13px;&quot;&gt;Customer&lt;/font&gt;&lt;/b&gt;" style="text;html=1;strokeColor=#36393d;fillColor=#ffff88;align=center;verticalAlign=middle;whiteSpace=wrap;overflow=hidden;" vertex="1" parent="1">
          <mxGeometry x="420" y="219" width="70" height="20" as="geometry" />
        </mxCell>
        <mxCell id="3uDAKEXOSBVSARUy6kpd-6" value="&lt;b&gt;&lt;font style=&quot;font-size: 13px;&quot;&gt;Customer&lt;/font&gt;&lt;/b&gt;" style="text;html=1;strokeColor=#36393d;fillColor=#ffff88;align=center;verticalAlign=middle;whiteSpace=wrap;overflow=hidden;" vertex="1" parent="1">
          <mxGeometry x="684" y="251" width="70" height="20" as="geometry" />
        </mxCell>
        <mxCell id="3uDAKEXOSBVSARUy6kpd-7" value="&lt;b&gt;&lt;font style=&quot;font-size: 13px;&quot;&gt;Customer&lt;/font&gt;&lt;/b&gt;" style="text;html=1;strokeColor=#36393d;fillColor=#ffff88;align=center;verticalAlign=middle;whiteSpace=wrap;overflow=hidden;" vertex="1" parent="1">
          <mxGeometry x="684" y="109" width="70" height="20" as="geometry" />
        </mxCell>
        <mxCell id="3uDAKEXOSBVSARUy6kpd-8" value="&lt;b&gt;&lt;font style=&quot;font-size: 13px;&quot;&gt;Sales&lt;/font&gt;&lt;/b&gt;" style="text;html=1;strokeColor=#3700CC;fillColor=#6a00ff;align=center;verticalAlign=middle;whiteSpace=wrap;overflow=hidden;fontColor=#ffffff;" vertex="1" parent="1">
          <mxGeometry x="115" y="313" width="70" height="20" as="geometry" />
        </mxCell>
      </root>
    </mxGraphModel>
  </diagram>
</mxfile>
